<?xml version="1.0" standalone="no"?>
<!DOCTYPE svg PUBLIC "-//W3C//DTD SVG 20010904//EN"
 "http://www.w3.org/TR/2001/REC-SVG-20010904/DTD/svg10.dtd">
<svg version="1.0" xmlns="http://www.w3.org/2000/svg"
 width="120.000000pt" height="120.000000pt" viewBox="0 0 120.000000 120.000000"
 preserveAspectRatio="xMidYMid meet">
<metadata>
Created by potrace 1.14, written by Peter Selinger 2001-2017
</metadata>
<g transform="translate(0.000000,120.000000) scale(0.100000,-0.100000)"
fill="#000000" stroke="none">
<path d="M200 1191 c-72 -22 -136 -75 -172 -143 -21 -40 -23 -57 -26 -245 l-3
-203 128 0 128 -1 -50 -17 c-129 -45 -207 -159 -201 -295 4 -79 32 -143 86
-197 54 -54 118 -82 197 -86 136 -6 258 79 298 208 13 41 14 38 14 -84 l1
-128 300 0 300 0 0 300 0 300 -132 1 c-126 0 -131 1 -86 13 131 35 219 158
214 297 -3 82 -31 145 -91 203 -154 150 -416 88 -486 -116 l-18 -53 -1 128 0
127 -187 -1 c-104 0 -199 -4 -213 -8z m464 -474 c36 -47 97 -88 154 -103 41
-11 18 -13 -198 -13 -135 1 -238 3 -230 5 106 35 180 110 204 209 l8 30 17
-46 c10 -26 30 -62 45 -82z"/>
</g>
</svg>
